<svg xmlns="http://www.w3.org/2000/svg" width="520" height="260" viewBox="0 0 520 260" fill="none" stroke="#E0A63A" stroke-width="2" stroke-linecap="round" stroke-linejoin="round" opacity=".16"><g transform="translate(20 20) rotate(-8 24 24)"><circle cx="20" cy="31" r="10"/><path d="M14 8v14h14l5 11h6"/><circle cx="37" cy="39" r="3"/><path d="M14 22h-2"/></g><g transform="translate(150 110) rotate(6 24 24)"><path d="M9 20a14 14 0 0 1 14-14v14z"/><path d="M9 20h27l-4 10H14z"/><circle cx="16" cy="38" r="4"/><circle cx="32" cy="38" r="4"/><path d="M36 20l6-9"/></g><g transform="translate(270 24) rotate(14 24 24)"><path d="M13 6h12M19 6l5 36M17 22h8"/></g><g transform="translate(380 120) rotate(-6 24 24)"><path d="M15 6v36M15 24h19v18M15 6h3M34 24v-2"/></g><g transform="translate(460 20) rotate(4 24 24)"><path d="M5 17h38M10 17v24M38 17v24M10 27h28"/></g><g transform="translate(60 160) rotate(-4 24 24)"><path d="M20 6h8M20 6l-2 11h12l-2-11M18 17 9 42h30l-9-25"/></g><g transform="translate(210 190) rotate(-10 24 24)"><path d="M12 10h24M14 10v31M34 10v31M14 25h20"/></g><g transform="translate(330 200) rotate(8 24 24)"><path d="M24 38s-13-8-13-17a7 7 0 0 1 13-4 7 7 0 0 1 13 4c0 9-13 17-13 17z"/></g><g transform="translate(440 190) rotate(-3 24 24)"><path d="M6 12v28M42 12v28M6 18h36M6 34h36M14 18v16M22 18v16M30 18v16M38 18v16"/></g><g transform="translate(110 70) rotate(12 24 24)"><path d="M22 42V16a7 7 0 0 1 14 0v3"/></g><g transform="translate(300 110) rotate(-12 24 24)"><path d="M6 22h36M10 22v16M38 22v16M6 28h36"/></g><g transform="translate(20 110) rotate(0 24 24)"><path d="M16 20h16l-5-12h-6zM24 20v18M16 40h16"/></g></svg>